<svg width="75" height="24" viewBox="0 0 75 24" fill="none" xmlns="http://www.w3.org/2000/svg">
<path d="M6 11L12 5L18 11M6 17L12 11L18 17" stroke="white" stroke-width="2.5" stroke-linecap="round" stroke-linejoin="round"/>
<path d="M25.4219 5.78906H27.9141V18H25.4219V5.78906ZM30.7891 8.78125H33.1016V9.5625C33.7161 9.21354 34.3021 8.96875 34.8594 8.82812C35.4219 8.6875 35.9714 8.61719 36.5078 8.61719C37.2109 8.61719 37.862 8.72135 38.4609 8.92969C39.0599 9.13281 39.5781 9.4375 40.0156 9.84375C40.4531 10.25 40.7943 10.7578 41.0391 11.3672C41.2891 11.9714 41.4141 12.6719 41.4141 13.4688V18H39.1094V13.8438C39.1094 13.3385 39.0365 12.888 38.8906 12.4922C38.75 12.0911 38.5443 11.7552 38.2734 11.4844C38.0078 11.2083 37.6823 11 37.2969 10.8594C36.9167 10.7135 36.4896 10.6406 36.0156 10.6406C35.7656 10.6406 35.5078 10.6667 35.2422 10.7188C34.9818 10.7708 34.724 10.8464 34.4688 10.9453C34.2188 11.0391 33.9766 11.1589 33.7422 11.3047C33.5078 11.4453 33.2943 11.6068 33.1016 11.7891V18H30.7891V8.78125ZM43.5469 13.4297C43.5469 12.6953 43.6849 12.0339 43.9609 11.4453C44.237 10.8516 44.6172 10.3464 45.1016 9.92969C45.5911 9.50781 46.1693 9.1849 46.8359 8.96094C47.5078 8.73177 48.2344 8.61719 49.0156 8.61719C49.349 8.61719 49.6771 8.63802 50 8.67969C50.3281 8.72135 50.6406 8.77865 50.9375 8.85156C51.2396 8.92448 51.5208 9.01302 51.7812 9.11719C52.0469 9.21615 52.2812 9.32552 52.4844 9.44531V5.03906H54.7969V18H52.4844V17.1328C52.2812 17.2734 52.0417 17.4062 51.7656 17.5312C51.4896 17.6562 51.1927 17.7656 50.875 17.8594C50.5573 17.9531 50.2266 18.026 49.8828 18.0781C49.5443 18.1354 49.2083 18.1641 48.875 18.1641C48.0938 18.1641 47.375 18.0495 46.7188 17.8203C46.0677 17.5911 45.5078 17.2682 45.0391 16.8516C44.5703 16.4349 44.2031 15.9375 43.9375 15.3594C43.6771 14.776 43.5469 14.1328 43.5469 13.4297ZM45.9766 13.4297C45.9766 13.7995 46.0495 14.1484 46.1953 14.4766C46.3464 14.8047 46.5599 15.0938 46.8359 15.3438C47.1172 15.5885 47.4531 15.7839 47.8438 15.9297C48.2396 16.0703 48.6823 16.1406 49.1719 16.1406C49.4844 16.1406 49.7969 16.112 50.1094 16.0547C50.4219 15.9922 50.7214 15.9062 51.0078 15.7969C51.2995 15.6875 51.5703 15.5547 51.8203 15.3984C52.0755 15.2422 52.2969 15.0677 52.4844 14.875V11.6797C52.25 11.4922 52.0026 11.3333 51.7422 11.2031C51.4818 11.0729 51.2161 10.9661 50.9453 10.8828C50.6745 10.7995 50.401 10.7396 50.125 10.7031C49.849 10.6615 49.5807 10.6406 49.3203 10.6406C48.7891 10.6406 48.3151 10.7135 47.8984 10.8594C47.487 11 47.138 11.1953 46.8516 11.4453C46.5703 11.6953 46.3542 11.9896 46.2031 12.3281C46.0521 12.6667 45.9766 13.0339 45.9766 13.4297ZM58.8516 7.52344C58.6224 7.52344 58.4141 7.49219 58.2266 7.42969C58.0443 7.36198 57.888 7.27344 57.7578 7.16406C57.6276 7.04948 57.526 6.91927 57.4531 6.77344C57.3854 6.6224 57.3516 6.46354 57.3516 6.29688C57.3516 6.125 57.3854 5.96615 57.4531 5.82031C57.526 5.66927 57.6276 5.53906 57.7578 5.42969C57.888 5.32031 58.0443 5.23438 58.2266 5.17188C58.4141 5.10417 58.6224 5.07031 58.8516 5.07031C59.0859 5.07031 59.2943 5.10417 59.4766 5.17188C59.6641 5.23438 59.8229 5.32031 59.9531 5.42969C60.0833 5.53906 60.1823 5.66927 60.25 5.82031C60.3229 5.96615 60.3594 6.125 60.3594 6.29688C60.3594 6.46354 60.3229 6.6224 60.25 6.77344C60.1823 6.91927 60.0833 7.04948 59.9531 7.16406C59.8229 7.27344 59.6641 7.36198 59.4766 7.42969C59.2943 7.49219 59.0859 7.52344 58.8516 7.52344ZM57.6953 8.78125H60.0078V18H57.6953V8.78125ZM62.5391 13.3594C62.5391 12.7344 62.6667 12.138 62.9219 11.5703C63.1771 10.9974 63.5443 10.4922 64.0234 10.0547C64.5026 9.61719 65.0885 9.26823 65.7812 9.00781C66.4792 8.7474 67.2708 8.61719 68.1562 8.61719C69.0365 8.61719 69.8281 8.75 70.5312 9.01562C71.2396 9.27604 71.8385 9.63542 72.3281 10.0938C72.8229 10.5521 73.2005 11.0911 73.4609 11.7109C73.7266 12.3307 73.8594 12.9948 73.8594 13.7031C73.8594 13.7917 73.8568 13.888 73.8516 13.9922C73.8516 14.0911 73.8464 14.1823 73.8359 14.2656H65.1172C65.2161 14.5417 65.375 14.7943 65.5938 15.0234C65.8177 15.2526 66.0964 15.4505 66.4297 15.6172C66.763 15.7839 67.1484 15.9141 67.5859 16.0078C68.0234 16.0964 68.5078 16.1406 69.0391 16.1406C69.5703 16.1406 70.099 16.0859 70.625 15.9766C71.151 15.862 71.6536 15.7188 72.1328 15.5469L72.9141 17.3125C72.612 17.4531 72.3047 17.5781 71.9922 17.6875C71.6849 17.7917 71.362 17.8802 71.0234 17.9531C70.6901 18.0208 70.3385 18.0729 69.9688 18.1094C69.6042 18.1458 69.2188 18.1641 68.8125 18.1641C67.776 18.1641 66.8672 18.0391 66.0859 17.7891C65.3047 17.5391 64.651 17.1979 64.125 16.7656C63.599 16.3333 63.2031 15.8255 62.9375 15.2422C62.6719 14.6589 62.5391 14.0312 62.5391 13.3594ZM71.4062 12.4609C71.3229 12.2057 71.1927 11.9688 71.0156 11.75C70.8438 11.526 70.6276 11.3333 70.3672 11.1719C70.1068 11.0052 69.8047 10.875 69.4609 10.7812C69.1172 10.6875 68.7396 10.6406 68.3281 10.6406C67.8906 10.6406 67.4922 10.6901 67.1328 10.7891C66.7734 10.888 66.4583 11.0208 66.1875 11.1875C65.9167 11.3542 65.6901 11.5469 65.5078 11.7656C65.3307 11.9844 65.2005 12.2161 65.1172 12.4609H71.4062Z" fill="white"/>
</svg>
